<?xml version="1.0" standalone="no"?>
<!DOCTYPE svg PUBLIC "-//W3C//DTD SVG 20010904//EN"
 "http://www.w3.org/TR/2001/REC-SVG-20010904/DTD/svg10.dtd">
<svg version="1.0" xmlns="http://www.w3.org/2000/svg"
 width="600.000000pt" height="600.000000pt" viewBox="0 0 600.000000 600.000000"
 preserveAspectRatio="xMidYMid meet">

<g transform="translate(0.000000,600.000000) scale(0.100000,-0.100000)"
fill="#000000" stroke="none">
<path d="M40 3000 l0 -3000 2970 0 2970 0 0 3000 0 3000 -2970 0 -2970 0 0
-3000z m5793 448 l-3 -2433 -2155 -3 -2155 -2 0 81 c0 77 -10 115 -34 131 -19
13 -74 9 -90 -7 -8 -8 -17 -15 -21 -15 -4 0 -13 7 -21 15 -19 18 -65 20 -83 3
-10 -11 -14 -10 -22 5 -6 9 -17 17 -24 17 -12 0 -15 -21 -15 -115 l0 -115 -67
0 -68 0 31 16 c37 18 60 75 50 127 -22 116 -206 99 -206 -19 0 -57 19 -91 58
-108 37 -15 36 -15 -65 -15 l-103 -1 0 72 c0 79 15 108 57 108 16 0 23 6 23
20 0 25 -35 27 -61 4 -16 -14 -18 -14 -24 6 -4 13 -13 20 -23 18 -15 -3 -17
-19 -18 -113 l-1 -110 -90 -3 -91 -3 -4 66 -3 65 58 0 c43 0 59 4 64 15 8 22
4 24 -60 26 l-58 2 3 51 3 51 65 1 c57 1 65 4 65 20 0 17 -9 19 -92 22 l-92 3
-3 -158 -3 -158 -187 -3 -188 -2 0 2435 0 2435 2828 0 2827 0 -2 -2432z
m-4739 -2264 c19 -19 22 -104 4 -122 -7 -7 -27 -12 -45 -12 -38 0 -53 21 -53
75 0 20 5 45 10 56 13 23 62 26 84 3z m244 -82 l3 -93 -42 3 -42 3 2 85 c3 90
9 102 51 98 24 -3 25 -5 28 -96z m130 1 l3 -93 -41 0 -40 0 0 88 c0 49 3 92 7
96 4 4 21 6 38 4 l30 -3 3 -92z m371 -295 c44 -25 50 -41 25 -76 -18 -26 -41
-28 -80 -7 -54 28 -122 16 -144 -26 -20 -36 10 -64 105 -100 117 -44 145 -76
145 -163 0 -49 -5 -71 -23 -97 -32 -48 -80 -77 -141 -84 -62 -8 -105 -1 -161
28 -57 28 -66 44 -46 79 23 39 35 41 91 13 78 -40 157 -28 170 25 12 45 -13
76 -77 96 -136 41 -173 79 -173 175 0 70 26 112 90 147 39 21 54 23 112 19 44
-4 81 -14 107 -29z m514 18 c38 -14 107 -56 107 -66 0 -3 -13 -20 -30 -38
l-30 -33 -45 27 c-39 22 -55 26 -100 22 -98 -8 -157 -78 -158 -189 -1 -158
133 -245 264 -172 l48 27 25 -24 c33 -30 33 -43 -4 -73 -65 -55 -169 -69 -283
-37 -60 17 -130 96 -150 167 -39 138 -5 272 88 345 67 53 188 72 268 44z m933
-14 c21 -11 48 -27 58 -35 18 -14 18 -15 1 -45 -25 -42 -38 -45 -85 -21 -78
41 -167 37 -221 -8 -106 -90 -84 -294 36 -340 51 -20 100 -24 136 -11 43 14
49 23 49 75 l0 42 -47 3 -48 3 0 38 c0 20 3 37 8 37 4 0 48 0 97 0 l90 0 0
-121 0 -120 -52 -24 c-69 -31 -141 -39 -216 -25 -75 13 -105 28 -156 77 -58
57 -79 111 -79 210 0 72 4 91 29 140 54 106 152 157 285 149 49 -2 89 -11 115
-24z m-2000 -9 c90 -48 144 -150 144 -270 0 -114 -86 -234 -188 -263 -20 -5
-101 -10 -179 -10 l-143 0 0 286 0 286 163 -4 c144 -3 167 -6 203 -25z m2432
-167 c2 -15 1 -40 -3 -53 -5 -20 -10 -24 -30 -19 -29 7 -74 -8 -91 -32 -9 -12
-13 -56 -14 -144 l0 -128 -55 0 -55 0 0 200 0 200 44 0 c35 0 46 -4 51 -19 6
-19 7 -19 43 5 25 18 47 24 72 22 30 -3 35 -7 38 -32z m347 15 c105 -47 146
-184 90 -297 -35 -71 -86 -98 -181 -98 -61 0 -77 4 -112 27 -56 37 -82 90 -82
168 0 75 16 132 44 158 66 60 164 78 241 42z m1006 -17 c59 -57 76 -200 33
-289 -26 -55 -86 -95 -143 -95 -25 0 -58 7 -73 14 l-28 15 0 -80 0 -79 -55 0
-55 0 0 270 0 270 46 0 c37 0 47 -4 51 -20 5 -19 6 -19 32 -1 35 25 57 30 114
27 37 -2 55 -10 78 -32z m-691 -112 c0 -108 3 -142 16 -160 20 -29 72 -29 108
-1 l27 21 -3 139 -3 139 52 0 52 0 3 -200 3 -200 -47 0 c-36 0 -48 4 -48 15 0
19 -3 19 -52 -6 -50 -26 -127 -22 -159 7 -45 40 -53 72 -57 232 l-4 152 56 0
56 0 0 -138z m-1628 -17 l3 -45 -107 0 -108 0 0 38 c0 21 3 42 7 45 3 4 50 7
104 7 l97 0 4 -45z"/>
<path d="M2680 4223 c-597 -44 -1056 -157 -1465 -360 -225 -111 -366 -209
-488 -336 -280 -293 -318 -603 -114 -913 80 -122 231 -262 397 -368 195 -125
550 -269 837 -341 390 -97 713 -135 1156 -135 613 0 1131 88 1592 269 81 32
276 122 285 131 3 3 30 18 60 34 122 65 239 155 353 271 379 385 309 843 -184
1207 -108 79 -152 105 -319 188 -372 184 -819 298 -1350 344 -158 14 -619 20
-760 9z m590 -143 c251 -12 412 -32 635 -76 316 -62 588 -147 797 -247 121
-59 228 -119 250 -140 7 -7 21 -16 31 -20 10 -4 55 -37 100 -74 427 -349 407
-754 -54 -1088 -193 -140 -441 -261 -674 -329 -50 -15 -119 -35 -155 -46 -167
-49 -511 -110 -750 -131 -181 -17 -688 -17 -875 -1 -301 27 -563 76 -863 163
-565 164 -994 482 -1067 791 -47 198 21 386 202 561 37 36 80 75 95 87 502
389 1382 597 2328 550z"/>
<path d="M1743 3490 c-38 -15 -43 -42 -43 -212 0 -90 -5 -246 -11 -348 -17
-299 -17 -285 10 -314 30 -32 87 -35 121 -8 26 21 34 65 45 242 8 122 16 132
57 78 38 -50 67 -112 74 -160 4 -23 13 -53 21 -64 33 -51 128 -56 153 -9 17
32 6 111 -27 194 -25 61 -74 144 -94 156 -15 10 -10 31 14 56 41 43 96 124
126 188 24 52 28 68 19 91 -19 55 -98 80 -137 43 -10 -10 -33 -45 -51 -78 -50
-90 -109 -165 -130 -165 -6 0 -10 50 -10 129 0 128 0 129 -29 160 -30 32 -64
39 -108 21z"/>
<path d="M2715 3396 c-18 -18 -25 -39 -30 -92 -18 -195 -21 -204 -66 -250 -69
-70 -134 -79 -173 -22 -21 29 -21 128 -1 194 21 70 19 109 -7 134 -49 46 -112
37 -140 -20 -50 -102 -57 -257 -17 -365 40 -106 156 -173 268 -155 30 5 57 7
60 4 12 -12 -38 -80 -86 -116 -28 -22 -56 -51 -61 -66 -18 -52 24 -121 74
-122 25 0 130 67 160 102 96 114 148 304 161 598 l6 146 -32 27 c-41 34 -84
35 -116 3z"/>
<path d="M1331 3370 c-86 -63 -135 -137 -147 -221 -14 -100 37 -175 169 -247
84 -46 107 -74 107 -130 0 -56 -34 -85 -108 -90 -46 -3 -61 0 -78 16 -60 57
-164 25 -164 -50 0 -43 67 -107 139 -132 130 -46 302 19 363 139 69 134 -1
318 -147 385 -27 13 -62 32 -77 42 -53 37 -29 104 53 150 53 29 72 65 58 106
-23 67 -99 81 -168 32z"/>
<path d="M3092 3381 c-118 -41 -130 -71 -167 -446 -8 -88 -22 -225 -31 -304
-15 -139 -15 -145 3 -169 28 -38 68 -48 110 -28 47 22 58 56 72 216 7 74 14
136 16 138 2 2 48 5 102 6 118 3 187 29 255 98 57 56 81 109 86 186 4 52 0 71
-22 116 -46 94 -145 166 -262 191 -87 19 -98 18 -162 -4z m176 -191 c62 -28
92 -65 92 -112 0 -71 -63 -108 -184 -108 l-59 0 6 99 c3 54 10 108 16 120 15
27 70 28 129 1z"/>
<path d="M4668 3373 c-30 -19 -32 -26 -49 -168 -13 -112 -18 -126 -63 -173
-61 -66 -120 -79 -161 -37 -21 21 -25 33 -25 88 0 37 9 94 21 132 29 95 15
136 -53 155 -67 20 -106 -27 -134 -161 -53 -251 72 -437 279 -415 31 3 57 3
57 -1 0 -17 -69 -93 -109 -119 -66 -43 -78 -101 -31 -152 32 -34 76 -29 148
18 110 70 177 192 216 391 28 145 51 358 42 394 -7 28 -59 65 -91 65 -11 0
-32 -8 -47 -17z"/>
<path d="M3940 3355 c-80 -45 -173 -167 -238 -310 -39 -88 -95 -282 -116 -404
-14 -84 -14 -97 0 -126 26 -56 97 -73 138 -32 17 17 27 47 40 125 l18 102 99
0 99 0 0 -75 c0 -83 17 -137 48 -154 33 -17 77 -13 107 11 l28 22 -6 310 c-4
171 -12 343 -18 381 -26 160 -92 209 -199 150z m32 -335 c0 -55 1 -106 2 -112
1 -16 -112 -24 -126 -10 -16 16 88 222 112 222 6 0 11 -42 12 -100z"/>
<path d="M1035 728 c-3 -8 -5 -96 -3 -194 l3 -179 85 0 c74 0 89 3 119 24 96
68 94 265 -2 335 -37 27 -193 37 -202 14z"/>
<path d="M3923 568 c-46 -22 -54 -149 -12 -201 36 -47 111 -40 142 12 30 52
18 157 -21 187 -20 16 -78 17 -109 2z"/>
<path d="M4886 559 c-25 -19 -26 -25 -26 -108 0 -54 4 -91 12 -99 7 -7 31 -12
54 -12 35 0 47 5 68 31 21 25 26 41 26 85 0 59 -19 108 -45 118 -30 11 -62 6
-89 -15z"/>
</g>
</svg>
